<svg width="150" height="171" viewBox="0 0 150 171" fill="none" xmlns="http://www.w3.org/2000/svg">
<path d="M133.338 86.5703V86.5708L93.75 123.958L150 170.833V70.8333L133.338 86.5703Z" fill="#13BC8C"/>
<path d="M0 70.8333V170.833L56.25 123.958L0 70.8333Z" fill="#40E4B6"/>
<path d="M56.25 123.958L0 170.833H75V141.667L56.25 123.958Z" fill="#29CFA0"/>
<path d="M75 141.667V170.833H150L93.75 123.958L75 141.667Z" fill="#28C498"/>
<path d="M16.6637 55.0952L0 70.8331H16.6625L16.6637 55.0952Z" fill="#0AD69C"/>
<path d="M150 70.8332L133.335 55.0945L133.336 70.8332H150Z" fill="#0AD69C"/>
<path d="M74.9998 0L48.4219 25.1012L101.511 25.0383L74.9998 0Z" fill="#0AD69C"/>
<path d="M133.338 86.5703L150 70.8333H133.337L133.338 86.5703Z" fill="#0C926C"/>
<path d="M75 141.667L16.6608 86.5687L16.6625 70.8333H0L56.25 123.958L75 141.667Z" fill="#0C926C"/>
<path d="M16.6611 86.5687L75.0003 141.667L93.7503 123.958L133.338 86.5708L133.337 70.8333L133.336 55.0946L133.334 25L101.511 25.0383L48.4224 25.1013L16.667 25.1392L16.664 55.0954L16.6628 70.8333L16.6611 86.5687ZM37.5003 75H112.5V87.5H37.5003V75ZM37.5003 62.5V50H112.5V62.5H37.5003Z" fill="#F2F0E3"/>
<rect x="27.5" y="38.3333" width="89.1667" height="53.3333" fill="#F2F0E3"/>
<path d="M82.0119 48.7932H68.1326C66.8533 48.7932 65.8193 47.7592 65.8193 46.48C65.8193 45.2008 66.8533 44.1667 68.1326 44.1667H82.0119C83.2911 44.1667 84.3251 45.2008 84.3251 46.48C84.3251 47.7592 83.2911 48.7932 82.0119 48.7932Z" fill="#ABABAB"/>
<path d="M102.83 85.8044H88.9509C87.6717 85.8044 86.6377 84.7704 86.6377 83.4912C86.6377 82.212 87.6717 81.178 88.9509 81.178H102.83C104.109 81.178 105.143 82.212 105.143 83.4912C105.143 84.7704 104.109 85.8044 102.83 85.8044Z" fill="#ABABAB"/>
<path d="M58.8793 67.2986H47.3132C46.034 67.2986 45 66.2645 45 64.9853C45 63.7061 46.034 62.6721 47.3132 62.6721H58.8793C60.1585 62.6721 61.1925 63.7061 61.1925 64.9853C61.1925 66.2645 60.1585 67.2986 58.8793 67.2986Z" fill="#ABABAB"/>
<path d="M93.5057 69.6264H77.3132C76.034 69.6264 75 68.5924 75 67.3132C75 66.034 76.034 65 77.3132 65H93.5057C94.785 65 95.819 66.034 95.819 67.3132C95.819 68.5924 94.785 69.6264 93.5057 69.6264Z" fill="#ABABAB"/>
<path d="M68.1326 67.2994C67.5311 67.2994 66.9274 67.045 66.4902 66.6286C66.0715 66.1891 65.8193 65.5876 65.8193 64.9862C65.8193 64.3848 66.0715 63.781 66.4902 63.3438C67.3461 62.4879 68.919 62.4879 69.7749 63.3438C70.1913 63.781 70.4458 64.3848 70.4458 64.9862C70.4458 65.5876 70.1913 66.1891 69.7749 66.6286C69.3354 67.045 68.734 67.2994 68.1326 67.2994Z" fill="#ABABAB"/>
<path d="M79.6983 85.8044H56.5661C55.2869 85.8044 54.2529 84.7704 54.2529 83.4912C54.2529 82.212 55.2869 81.178 56.5661 81.178H79.6983C80.9775 81.178 82.0116 82.212 82.0116 83.4912C82.0116 84.7704 80.9775 85.8044 79.6983 85.8044Z" fill="#ABABAB"/>
<path d="M47.3132 85.8048C46.7118 85.8048 46.108 85.5503 45.6708 85.134C45.2521 84.6945 45 84.093 45 83.4916C45 82.8901 45.2521 82.2864 45.6708 81.8492C46.5267 80.9933 48.0766 80.9933 48.9556 81.8492C49.372 82.2864 49.6264 82.8901 49.6264 83.4916C49.6264 84.093 49.372 84.6945 48.9556 85.134C48.5161 85.5712 47.9147 85.8048 47.3132 85.8048Z" fill="#ABABAB"/>
<path d="M102.831 67.2994C102.229 67.2994 101.626 67.045 101.188 66.6286C100.77 66.1891 100.518 65.5876 100.518 64.9862C100.518 64.3593 100.77 63.781 101.188 63.3438C102.044 62.4879 103.617 62.4879 104.473 63.3438C104.89 63.781 105.144 64.3593 105.144 64.9862C105.144 65.6108 104.89 66.1891 104.473 66.6286C104.034 67.045 103.432 67.2994 102.831 67.2994Z" fill="#ABABAB"/>
<path d="M58.8793 104.31H47.3132C46.034 104.31 45 103.276 45 101.997C45 100.718 46.034 99.6838 47.3132 99.6838H58.8793C60.1585 99.6838 61.1925 100.718 61.1925 101.997C61.1925 103.276 60.1585 104.31 58.8793 104.31Z" fill="#ABABAB"/>
<path d="M93.578 104.31H77.3855C76.1063 104.31 75.0723 103.276 75.0723 101.997C75.0723 100.718 76.1063 99.6838 77.3855 99.6838H93.578C94.8572 99.6838 95.8912 100.718 95.8912 101.997C95.8912 103.276 94.8572 104.31 93.578 104.31Z" fill="#ABABAB"/>
<path d="M68.1326 104.311C67.5057 104.311 66.9274 104.056 66.4902 103.64C66.0715 103.2 65.8193 102.599 65.8193 101.997C65.8193 101.371 66.0715 100.792 66.4902 100.355C67.3461 99.4992 68.8959 99.4992 69.7749 100.355C70.1913 100.792 70.4458 101.396 70.4458 101.997C70.4458 102.599 70.1913 103.2 69.7749 103.64C69.3354 104.056 68.734 104.311 68.1326 104.311Z" fill="#ABABAB"/>
<path d="M102.831 104.311C102.229 104.311 101.626 104.056 101.188 103.64C100.77 103.2 100.518 102.599 100.518 101.997C100.518 101.396 100.77 100.792 101.188 100.355C102.044 99.4992 103.617 99.4992 104.473 100.355C104.89 100.792 105.144 101.396 105.144 101.997C105.144 102.599 104.89 103.2 104.473 103.64C104.034 104.056 103.455 104.311 102.831 104.311Z" fill="#ABABAB"/>
</svg>
